<svg id="Layer_1" enable-background="new 0 0 512 512" height="512" viewBox="0 0 512 512" width="512" xmlns="http://www.w3.org/2000/svg"><g><g fill="#ebf7ff"><path d="m67.548 512c-4.204 0-7.611-3.408-7.611-7.612 0-15.8 8.629-23.997 15.563-30.583 6.283-5.968 10.824-10.281 10.824-19.545s-4.54-13.576-10.824-19.545c-6.934-6.586-15.562-14.782-15.562-30.582 0-15.799 8.629-23.994 15.563-30.58 6.283-5.967 10.823-10.279 10.823-19.541 0-5.276-1.44-9.276-4.815-13.377-5.403-6.563-8.379-14.692-8.379-22.889v-75.82c0-4.204 3.408-7.611 7.611-7.611s7.611 3.408 7.611 7.611v75.82c0 4.676 1.743 9.369 4.909 13.215 5.652 6.867 8.284 14.192 8.284 23.052 0 15.798-8.629 23.994-15.563 30.579-6.283 5.968-10.824 10.279-10.824 19.542 0 9.264 4.54 13.576 10.824 19.545 6.934 6.586 15.563 14.783 15.563 30.583s-8.629 23.996-15.562 30.582c-6.284 5.969-10.824 10.281-10.824 19.545 0 4.203-3.408 7.611-7.611 7.611z"/><path d="m465.812 512c-4.204 0-7.612-3.408-7.612-7.612 0-15.8 8.629-23.997 15.563-30.583 6.283-5.968 10.824-10.281 10.824-19.545s-4.54-13.576-10.824-19.545c-6.934-6.586-15.562-14.782-15.562-30.582 0-15.799 8.629-23.994 15.563-30.58 6.283-5.967 10.823-10.279 10.823-19.541 0-5.276-1.44-9.276-4.815-13.377-5.403-6.563-8.379-14.692-8.379-22.889v-75.82c0-4.204 3.408-7.611 7.611-7.611 4.204 0 7.612 3.408 7.612 7.611v75.82c0 4.676 1.743 9.369 4.909 13.215 5.652 6.867 8.284 14.192 8.284 23.052 0 15.798-8.629 23.994-15.563 30.579-6.283 5.968-10.824 10.279-10.824 19.542 0 9.264 4.54 13.576 10.824 19.545 6.934 6.586 15.563 14.783 15.563 30.583s-8.629 23.996-15.562 30.582c-6.284 5.969-10.824 10.281-10.824 19.545.001 4.203-3.407 7.611-7.611 7.611z"/><path d="m341.92 512c-4.204 0-7.611-3.408-7.611-7.612 0-15.8 8.629-23.997 15.563-30.583 6.283-5.968 10.824-10.281 10.824-19.545s-4.54-13.576-10.824-19.545c-6.934-6.586-15.562-14.782-15.562-30.582 0-8.234 2.374-15.351 7.258-21.756 3.883-5.093 5.936-10.935 5.936-16.896v-103.257c0-4.204 3.408-7.612 7.611-7.612s7.612 3.408 7.612 7.612v103.257c0 9.325-3.13 18.359-9.053 26.126-2.902 3.806-4.14 7.553-4.14 12.526 0 9.264 4.54 13.576 10.824 19.545 6.934 6.586 15.563 14.783 15.563 30.583s-8.629 23.996-15.562 30.582c-6.284 5.969-10.824 10.281-10.824 19.545-.003 4.204-3.411 7.612-7.615 7.612z"/><path d="m205.876 512c-4.204 0-7.611-3.408-7.611-7.612 0-15.799 8.629-23.994 15.563-30.58 6.283-5.967 10.823-10.279 10.823-19.541 0-5.276-1.44-9.277-4.815-13.377-5.403-6.563-8.379-14.693-8.379-22.889v-65.671c0-4.204 3.408-7.612 7.611-7.612 4.204 0 7.611 3.408 7.611 7.612v65.671c0 4.676 1.743 9.369 4.909 13.215 5.652 6.867 8.284 14.192 8.284 23.052 0 15.798-8.629 23.994-15.563 30.579-6.283 5.968-10.824 10.279-10.824 19.542.003 4.203-3.405 7.611-7.609 7.611z"/></g><g><path d="m219.07 105.406c-44.691 0-81.049 36.261-81.049 80.833v84.33c0 39.97 29.246 73.236 67.512 79.683-5.144 2.687-9.928 5.985-12.022 8.073-4.839 4.826-4.839 12.651 0 17.478 4.839 4.826 12.685 4.826 17.525 0 .13-.129.264-.269.403-.419 4.149-4.472 11.114-4.472 15.263 0 .139.149.273.289.403.419 4.839 4.826 12.685 4.826 17.525 0 4.839-4.826 4.839-12.652 0-17.478-2.093-2.088-6.878-5.386-12.022-8.073 38.266-6.447 67.512-39.713 67.512-79.683v-84.33c-.001-44.572-36.36-80.833-81.05-80.833zm24.695 165.162c0 13.58-11.078 24.629-24.695 24.629s-24.695-11.049-24.695-24.629v-84.33c0-13.58 11.078-24.629 24.695-24.629s24.695 11.049 24.695 24.629z" fill="#6b8df2"/><g><path d="m219.069 105.406c-5.204 0-10.289.511-15.223 1.45 37.436 7.127 65.827 40.001 65.827 79.382v84.33c0 39.378-28.394 72.231-65.827 79.36.562.107 1.119.228 1.685.323-.568.297-1.13.601-1.685.91 4.481 2.491 8.474 5.305 10.336 7.162 3.802 3.791 4.603 9.428 2.432 14.013 3.523-.861 7.396.146 10.087 3.046.139.15.273.289.403.419 4.839 4.826 12.685 4.826 17.525 0 4.839-4.826 4.839-12.652 0-17.478-2.093-2.088-6.877-5.386-12.022-8.073 38.266-6.447 67.512-39.713 67.512-79.683v-84.33c0-44.57-36.358-80.831-81.05-80.831z" fill="#527bf2"/></g><path d="m132.436 185.496c-.12 0-.241.001-.361.002-13.054.164-26.728.288-39.357.358 9.115-12.36 20.547-28.167 34.704-48.34 12.303-17.532 20.333-34.226 23.863-49.614.191-.834.332-1.675.441-2.524l.904-7.054c.134-1.047.221-2.102.226-3.157.221-41.409-33.492-75.167-74.961-75.167-35.74 0-66.675 25.36-73.556 60.301-2.999 15.229 6.949 30 22.219 32.991 1.834.359 3.66.532 5.461.532 13.194-.001 24.979-9.291 27.618-22.691 1.704-8.65 9.382-14.93 18.257-14.93 9.793 0 17.843 7.583 18.556 17.17l-.421 3.283c-1.545 5.822-5.384 15.245-14.778 28.631-28.872 41.142-46.092 63.63-55.344 75.712-4.097 5.35-6.803 8.884-8.753 11.715-2.443 3.547-9.877 14.343-5.596 28.225 2.751 8.921 9.774 16.036 18.787 19.032 3.411 1.134 6.073 2.018 33.162 2.177-3.637 2.171-6.749 4.434-8.327 6.007-4.839 4.826-4.839 12.652 0 17.478s12.685 4.826 17.525 0c.021-.021.042-.042.063-.063 4.413-4.462 11.531-4.462 15.944 0l.063.063c4.839 4.826 12.685 4.826 17.525 0 4.839-4.826 4.839-12.651 0-17.478-1.599-1.594-4.773-3.896-8.472-6.092 9.986-.078 21.543-.198 34.954-.366 15.561-.195 28.017-12.933 27.821-28.453-.193-15.398-12.77-27.748-28.167-27.748z" fill="#ffca21"/><g fill="#f2bb0c"><path d="m122.41 75.167c-.006 1.055-.092 2.11-.226 3.157l-.904 7.054c-.109.849-.249 1.69-.441 2.524-3.53 15.388-11.56 32.082-23.863 49.613-14.157 20.173-25.589 35.98-34.704 48.34 9.84-.054 20.312-.142 30.634-.255 9.084-12.323 20.455-28.048 34.516-48.085 12.303-17.531 20.333-34.226 23.863-49.613.191-.834.332-1.675.441-2.524l.904-7.054c.134-1.047.221-2.101.226-3.157.221-41.409-33.492-75.167-74.961-75.167-5.178 0-10.249.548-15.167 1.564 34.16 7.084 59.875 37.421 59.682 73.603z"/><path d="m132.436 185.496c-.12 0-.241.001-.361.002-8.629.108-17.525.199-26.215.268 13.58 1.865 24.12 13.393 24.298 27.478.196 15.519-12.26 28.258-27.821 28.452-13.412.168-24.968.289-34.954.366 3.698 2.196 6.873 4.498 8.472 6.092 3.907 3.897 4.656 9.747 2.253 14.397 3.685-.895 7.722.102 10.606 3.018l.063.063c4.839 4.826 12.685 4.826 17.525 0 4.839-4.826 4.839-12.651 0-17.478-1.599-1.594-4.773-3.896-8.472-6.092 9.986-.078 21.542-.198 34.954-.366 15.561-.195 28.017-12.933 27.821-28.452-.195-15.398-12.772-27.748-28.169-27.748z"/></g><path d="m406.164 255.767c-.12 0-.241.001-.361.002-13.054.164-26.729.288-39.357.358 9.115-12.36 20.547-28.167 34.704-48.34 12.302-17.53 20.332-34.223 23.863-49.612.192-.836.333-1.678.441-2.528l.904-7.054c.134-1.044.22-2.097.226-3.15.224-41.411-33.49-75.171-74.961-75.171-35.739 0-66.674 25.36-73.556 60.301-2.999 15.229 6.948 30 22.218 32.991 1.834.359 3.66.532 5.462.532 13.194-.001 24.979-9.291 27.618-22.691 1.704-8.651 9.382-14.93 18.258-14.93 9.792 0 17.842 7.584 18.556 17.171l-.421 3.282c-1.546 5.823-5.385 15.246-14.778 28.631-28.872 41.141-46.092 63.63-55.344 75.712-4.097 5.35-6.803 8.883-8.753 11.715-2.443 3.548-9.877 14.344-5.596 28.225 2.751 8.921 9.774 16.036 18.787 19.032 3.495 1.162 6.217 2.061 35.217 2.187-4.236 2.406-7.959 5.059-9.738 6.833-4.839 4.826-4.839 12.651 0 17.478 4.839 4.826 12.685 4.826 17.525 0 .13-.129.264-.269.403-.419 4.149-4.472 11.114-4.472 15.263 0 .139.149.273.289.403.419 4.839 4.826 12.685 4.826 17.525 0 4.839-4.826 4.839-12.652 0-17.478-1.802-1.797-5.598-4.492-9.899-6.922 10.165-.078 21.97-.199 35.738-.372 15.561-.195 28.017-12.933 27.821-28.453-.194-15.399-12.771-27.749-28.168-27.749z" fill="#f2a7d0"/><g fill="#f294c7"><path d="m396.138 145.443c-.006 1.053-.092 2.106-.226 3.15l-.903 7.054c-.109.85-.25 1.693-.441 2.528-3.531 15.388-11.561 32.082-23.863 49.612-14.157 20.173-25.589 35.98-34.704 48.34 9.84-.054 20.312-.142 30.634-.255 9.084-12.323 20.455-28.048 34.516-48.085 12.302-17.53 20.332-34.223 23.863-49.612.192-.836.332-1.678.441-2.528l.903-7.054c.134-1.045.22-2.097.226-3.15.224-41.411-33.49-75.171-74.961-75.171-5.178 0-10.249.548-15.167 1.564 34.161 7.083 59.877 37.423 59.682 73.607z"/><path d="m406.164 255.767c-.12 0-.241.001-.361.002-8.629.108-17.524.199-26.214.268 13.58 1.865 24.12 13.393 24.297 27.478.196 15.519-12.26 28.258-27.821 28.452-13.768.173-25.573.295-35.738.372 4.302 2.43 8.098 5.125 9.899 6.922 3.802 3.791 4.603 9.428 2.432 14.014 3.523-.861 7.396.146 10.087 3.046.139.15.273.289.403.419 4.839 4.826 12.685 4.826 17.525 0 4.839-4.827 4.839-12.652 0-17.478-1.802-1.797-5.598-4.492-9.899-6.922 10.165-.078 21.97-.199 35.738-.372 15.561-.195 28.017-12.933 27.821-28.452-.195-15.399-12.772-27.749-28.169-27.749z"/></g><path d="m504.565 245.502c-2.413-2.406-8.396-6.418-14.389-9.249 10.004-4.314 17.008-14.241 17.008-25.802v-182.349c-.001-15.52-12.617-28.102-28.178-28.102h-39.08c-15.562 0-28.177 12.582-28.177 28.102s12.616 28.102 28.177 28.102h10.903v154.246c0 11.562 7.003 21.489 17.008 25.802-5.994 2.831-11.977 6.843-14.39 9.249-4.839 4.826-4.839 12.651 0 17.478 4.839 4.826 12.685 4.826 17.525 0 .021-.021.042-.042.063-.063 4.413-4.461 11.531-4.461 15.944 0l.063.063c4.839 4.826 12.685 4.826 17.525 0 4.837-4.826 4.837-12.651-.002-17.477z" fill="#41ccb4"/><g><path d="m504.565 245.502c-2.413-2.406-8.396-6.418-14.389-9.249 10.004-4.314 17.008-14.241 17.008-25.802v-182.349c-.001-15.52-12.617-28.102-28.178-28.102h-30.446c15.562 0 28.177 12.582 28.177 28.102v182.348c0 9.923-5.167 18.63-12.954 23.63 1.286.826 2.635 1.561 4.053 2.172-1.366.645-2.73 1.354-4.053 2.089 4.481 2.489 8.474 5.303 10.336 7.16 3.908 3.897 4.656 9.747 2.253 14.397 3.685-.895 7.722.102 10.606 3.017l.063.063c4.839 4.826 12.685 4.826 17.525 0 4.838-4.825 4.838-12.65-.001-17.476z" fill="#0fba9d"/></g></g></g></svg>